<svg xmlns="http://www.w3.org/2000/svg" version="1.1" xmlns:xlink="http://www.w3.org/1999/xlink" xmlns:svgjs="http://svgjs.dev/svgjs" width="1500" height="1500" viewBox="0 0 1500 1500"><rect width="1500" height="1500" fill="#393646"></rect><g transform="matrix(0.6666666666666666,0,0,0.6666666666666666,249.78425655976667,249.78425655976673)"><svg viewBox="0 0 343 343" data-background-color="#393646" preserveAspectRatio="xMidYMid meet" height="1500" width="1500" xmlns="http://www.w3.org/2000/svg" xmlns:xlink="http://www.w3.org/1999/xlink"><g id="tight-bounds" transform="matrix(1,0,0,1,0.0740000000000407,0.07400000000001228)"><svg viewBox="0 0 342.85155851775386 342.85155851775386" height="342.85155851775386" width="342.85155851775386"><g><svg></svg></g><g><svg viewBox="0 0 342.85155851775386 342.85155851775386" height="342.85155851775386" width="342.85155851775386"><g><path d="M0 171.426c0-94.676 76.75-171.426 171.426-171.426 94.676 0 171.426 76.75 171.426 171.426 0 94.676-76.75 171.426-171.426 171.426-94.676 0-171.426-76.75-171.426-171.426zM171.426 339.588c92.874 0 168.163-75.289 168.162-168.162 0-92.874-75.289-168.163-168.162-168.163-92.874 0-168.163 75.289-168.163 168.163 0 92.874 75.289 168.163 168.163 168.162z" data-fill-palette-color="tertiary" fill="#c794aa" stroke="transparent"></path><ellipse rx="164.56874808852186" ry="164.56874808852186" cx="171.42577925887693" cy="171.42577925887693" fill="#c794aa" stroke="transparent" stroke-width="0" fill-opacity="1" data-fill-palette-color="tertiary"></ellipse></g><g transform="matrix(1,0,0,1,64.84655864529837,124.05937580875644)"><svg viewBox="0 0 213.1584412271571 94.73280690024099" height="94.73280690024099" width="213.1584412271571"><g><svg viewBox="0 0 213.1584412271571 94.73280690024099" height="94.73280690024099" width="213.1584412271571"><g><svg viewBox="0 0 213.1584412271571 94.73280690024099" height="94.73280690024099" width="213.1584412271571"><g transform="matrix(1,0,0,1,0,58.54867515607429)"><svg viewBox="0 0 213.1584412271571 36.1841317441667" height="36.1841317441667" width="213.1584412271571"><g id="textblocktransform"><svg viewBox="0 0 213.1584412271571 36.1841317441667" height="36.1841317441667" width="213.1584412271571" id="textblock"><g><svg viewBox="0 0 213.1584412271571 36.1841317441667" height="36.1841317441667" width="213.1584412271571"><g transform="matrix(1,0,0,1,0,0)"><svg width="213.1584412271571" viewBox="1.1 -32.1 191.74 32.550000000000004" height="36.1841317441667" data-palette-color="#000000"><path d="M23.15-32.05L23.45-31.65 23.15-28.55 17.55-28.85 14.3-28.85 14.15-10 14.3 0 10.25 0 10.55-9.65 10.3-28.85 7.05-28.85 1.35-28.55 1.1-28.95 1.4-32.05 23.15-32.05ZM36.8-25.2Q42.25-25.2 45.17-22 48.1-18.8 48.1-12.95L48.1-12.95Q48.1-6.6 44.97-3.13 41.85 0.35 36.05 0.35L36.05 0.35Q30.65 0.35 27.7-2.93 24.75-6.2 24.75-12.25L24.75-12.25Q24.75-18.45 27.9-21.83 31.05-25.2 36.8-25.2L36.8-25.2ZM36.45-22.05Q32.5-22.05 30.57-19.8 28.65-17.55 28.65-12.7L28.65-12.7Q28.65-7.5 30.55-5.15 32.45-2.8 36.35-2.8L36.35-2.8Q40.35-2.8 42.3-5.1 44.25-7.4 44.25-12.3L44.25-12.3Q44.25-17.35 42.32-19.7 40.4-22.05 36.45-22.05L36.45-22.05ZM68.05-12.95Q71.34-7.5 76.34-0.95L76.34-0.95 76.3-0.45Q74.5 0.25 72.59 0.45L72.59 0.45 72.05 0.1Q67.94-6.05 64.69-11.9L64.69-11.9 58.84-11.9 58.84-10 59.05 0 54.99 0 55.24-9.65 54.99-32.05 64.8-32.1Q69.5-32.1 72.07-29.73 74.64-27.35 74.64-22.95L74.64-22.95Q74.64-19.65 72.92-17.03 71.19-14.4 68.05-12.95L68.05-12.95ZM59.05-28.65L58.89-15.3 64.89-15.15Q70.5-16.75 70.5-22.6L70.5-22.6Q70.5-25.65 68.84-27.18 67.19-28.7 63.89-28.8L63.89-28.8 59.05-28.65ZM95.79-12.95Q99.09-7.5 104.09-0.95L104.09-0.95 104.04-0.45Q102.24 0.25 100.34 0.45L100.34 0.45 99.79 0.1Q95.69-6.05 92.44-11.9L92.44-11.9 86.59-11.9 86.59-10 86.79 0 82.74 0 82.99-9.65 82.74-32.05 92.54-32.1Q97.24-32.1 99.82-29.73 102.39-27.35 102.39-22.95L102.39-22.95Q102.39-19.65 100.67-17.03 98.94-14.4 95.79-12.95L95.79-12.95ZM86.79-28.65L86.64-15.3 92.64-15.15Q98.24-16.75 98.24-22.6L98.24-22.6Q98.24-25.65 96.59-27.18 94.94-28.7 91.64-28.8L91.64-28.8 86.79-28.65ZM148.94-32.05L137.44 0 133.29 0 127.04-18.6 126.69-18.6 120.09 0 115.94 0 105.74-32.05 109.74-32.05 110.29-28.95 118.09-4.45 118.44-4.45 125.34-23.95 122.64-32.05 126.74-32.05 127.49-28.6 135.39-4.45 135.69-4.45 144.39-28.75 145.14-32.05 148.94-32.05ZM162.39-3L169.04-3.2 169.34-2.9 168.99 0 153.84 0 153.99-7.5 153.84-24.9 169.09-24.9 169.34-24.6 169.04-21.7 162.74-21.9 157.54-21.85 157.49-14.3 162.44-14.25 166.79-14.4 167.04-14.05 166.74-11.1 162.14-11.25 157.49-11.2 157.44-7.8 157.49-3.05 162.39-3ZM187.28-12.95Q192.84-11.85 192.84-7.05L192.84-7.05Q192.84-3.45 190.03-1.65 187.24 0.15 181.84 0.15L181.84 0.15Q178.59 0.15 175.59 0L175.59 0 175.74-7.5 175.59-24.9 183.39-24.95Q187.14-24.95 189.21-23.38 191.29-21.8 191.29-18.9L191.29-18.9Q191.29-16.75 190.24-15.25 189.19-13.75 187.28-12.95L187.28-12.95ZM187.34-18.45Q187.34-20.3 186.14-21.15 184.94-22 182.28-22L182.28-22 179.24-22 179.19-14.3 183.64-14.15Q185.49-14.55 186.41-15.58 187.34-16.6 187.34-18.45L187.34-18.45ZM182.28-2.7Q185.53-2.7 187.26-3.83 188.99-4.95 188.99-7.15L188.99-7.15Q188.99-8.95 187.78-9.95 186.59-10.95 184.14-11.3L184.14-11.3 179.19-11.25 179.14-7.8 179.24-2.85Q180.78-2.7 182.28-2.7L182.28-2.7Z" opacity="1" transform="matrix(1,0,0,1,0,0)" fill="#000000" class="wordmark-text-0" data-fill-palette-color="quaternary" id="text-0"></path></svg></g></svg></g></svg></g></svg></g><g transform="matrix(1,0,0,1,75.06919918213983,0)"><svg viewBox="0 0 63.02004286287746 50.00647007043839" height="50.00647007043839" width="63.02004286287746"><g><svg xmlns="http://www.w3.org/2000/svg" xmlns:xlink="http://www.w3.org/1999/xlink" version="1.1" x="0" y="0" viewBox="2.3 12.100000000000001 95.40000000000002 75.69999999999999" enable-background="new 0 0 100 100" xml:space="preserve" height="50.00647007043839" width="63.02004286287746" class="icon-icon-0" data-fill-palette-color="quaternary" id="icon-0"><path d="M84.7 25.7C84.2 23.5 83.4 21.3 82.3 19.2 85.5 20.4 88.1 22.7 89.7 25.7zM72.2 19.2C69 20.4 66.3 22.7 64.6 25.7H69.6C70.2 23.4 71.1 21.2 72.2 19.2M76.1 18.3C74.6 20.6 73.4 23.1 72.7 25.7H81.7C81 23.1 79.9 20.6 78.4 18.3 78 18.3 77.6 18.2 77.1 18.2 76.8 18.3 76.5 18.3 76.1 18.3M15.4 66.2V72H77.2V57C79.8 57 82.4 56.6 84.9 55.8V71.6C84.9 72.6 85.2 73.6 85.9 74.3L89.8 79.1C90.1 79.5 90.3 79.9 90.3 80.4V82.6C90.3 85.5 88 87.8 85.1 87.8H7.5C4.6 87.8 2.3 85.5 2.3 82.6V80.4C2.3 79.9 2.5 79.5 2.8 79.1L6.8 74.2C7.4 73.4 7.8 72.5 7.8 71.5V32.6C7.8 28.4 11.2 24.9 15.5 24.9H54C53.2 27.4 52.8 30 52.8 32.6H15.4zM38 80.3C38 81.8 39.2 83 40.7 83H52C53.5 83 54.7 81.8 54.7 80.3V79.7H38zM68.8 32.8C68.8 31.4 68.9 30 69.1 28.6H63.4C63 29.9 62.8 31.2 62.8 32.6S63 35.3 63.4 36.5H69C68.9 35.3 68.8 34 68.8 32.8M64.6 39.5C66.2 42.4 68.8 44.7 71.9 46 70.8 43.9 70.1 41.8 69.5 39.5zM71.7 32.8C71.7 34.1 71.8 35.3 72 36.6H82.3C82.5 35.2 82.6 33.9 82.6 32.5 82.6 31.2 82.5 30 82.3 28.7H72.1C71.8 30 71.7 31.4 71.7 32.8M91.7 18.1C99.7 26.1 99.7 39.1 91.7 47 85 53.7 74.7 54.8 66.9 50.2 63.8 52.5 60.5 52.9 58.2 52.6 57.4 52.5 57.3 51.4 58 51.1 60.1 50.1 61.4 48 62.2 46.3L62 46.1C54.9 38.1 55.2 25.8 62.9 18.1 70.7 10.1 83.7 10.1 91.7 18.1M89.4 20.4C86.1 17.1 81.8 15.3 77.2 15.3S68.3 17.1 65 20.4C61.8 23.7 60 28 60 32.6S61.8 41.5 65.1 44.8 72.7 49.9 77.3 49.9 86.2 48.1 89.5 44.8 94.6 37.2 94.6 32.6C94.5 28 92.7 23.7 89.4 20.4M75.9 46.9C76.3 46.9 76.8 47 77.2 47H78.2C79.7 44.7 80.9 42.2 81.6 39.6H72.5C73.3 42.1 74.4 44.6 75.9 46.9M85.5 32.4C85.5 33.8 85.4 35.2 85.2 36.5H91C91.4 35.2 91.6 33.9 91.6 32.6 91.6 31.2 91.4 29.9 91 28.6H85.3C85.4 29.9 85.5 31.1 85.5 32.4M82.1 46.1C85.4 44.9 88.1 42.5 89.8 39.5H84.7C84.1 41.8 83.2 44 82.1 46.1" fill="#000000" data-fill-palette-color="quaternary"></path></svg></g></svg></g><g></g></svg></g></svg></g></svg></g></svg></g><defs></defs></svg><rect width="342.85155851775386" height="342.85155851775386" fill="none" stroke="none" visibility="hidden"></rect></g></svg></g></svg>